<?xml version="1.0" encoding="UTF-8"?>
<svg id="Livello_2" data-name="Livello 2" xmlns="http://www.w3.org/2000/svg" viewBox="0 0 76.07 93.17">
  <defs>
    <style>
      .cls-1 {
        stroke-width: 0px;
      }
    </style>
  </defs>
  <g id="Livello_1-2" data-name="Livello 1">
    <g>
      <path class="cls-1" d="m76.07,65.73c0,1.06-.19,2.08-.5,3.08-.41,1.33-1.02,2.58-1.81,3.73-.94,1.37-2.05,2.58-3.36,3.61-.68.53-1.46.93-2.19,1.38-1.64,1.01-3.28,2.01-4.92,3.03-2.88,1.77-5.75,3.55-8.63,5.33-2.39,1.48-4.76,2.97-7.16,4.44-1.19.73-2.45,1.3-3.76,1.77-.97.34-1.96.62-2.97.81-1.26.24-2.53.34-3.8.22-1.84-.17-3.62-.61-5.34-1.32-1.47-.61-2.85-1.38-4.2-2.22-1.44-.9-2.9-1.77-4.34-2.66-1.47-.91-2.93-1.84-4.41-2.75-2.54-1.57-5.09-3.13-7.63-4.69-1.68-1.04-3.37-2.06-5.03-3.14-.76-.5-1.47-1.08-2.05-1.8-.38-.47-.8-.91-1.16-1.39-1.11-1.47-1.95-3.08-2.41-4.88-.19-.73-.31-1.46-.32-2.22-.01-1.27-.08-2.54-.08-3.82C0,44.47,0,26.71,0,8.96c0-1.34.21-2.63.88-3.82.57-1.01,1.36-1.83,2.25-2.55C4.55,1.43,6.17.69,7.94.28c.39-.09.8-.14,1.21-.15C15.44-.11,21.74.06,28.03.03c6.31-.03,12.63,0,18.94,0,6.3,0,12.59,0,18.89,0,1.91,0,3.7.51,5.38,1.41,1.4.74,2.61,1.71,3.53,2.98.8,1.11,1.3,2.36,1.3,3.78-.01,9.63-.01,47.99,0,57.54Zm-2.38-28.61h0V10.14c0-.61,0-1.21,0-1.82,0-.57-.12-1.1-.35-1.62-.43-.99-1.14-1.75-2-2.37-1.58-1.16-3.31-1.87-5.32-1.86-3.06,0-6.12-.05-9.18-.05-15.72.01-31.44.04-47.15.06-.29,0-.59.02-.88.07-1.37.22-2.6.77-3.73,1.55-1.74,1.2-2.88,2.76-2.64,5.01,0,9.06,0,18.12,0,27.18,0,9.61,0,19.23,0,28.84,0,.7.04,1.41.17,2.09.42,2.09,1.46,3.87,2.88,5.43.55.6,1.13,1.2,1.8,1.65,1.72,1.13,3.5,2.18,5.25,3.26,2.63,1.62,5.25,3.25,7.88,4.88,2.75,1.7,5.51,3.39,8.26,5.11,1.82,1.15,3.71,2.14,5.81,2.69,1.43.38,2.88.62,4.37.49,2.69-.23,5.16-1.15,7.46-2.52,1.51-.91,3-1.86,4.51-2.78,2.25-1.39,4.51-2.78,6.76-4.17,3.24-2,6.48-4,9.72-6.01.58-.36,1.18-.71,1.73-1.11.79-.59,1.47-1.3,2.08-2.07.94-1.19,1.67-2.49,2.14-3.94.36-1.11.42-2.24.42-3.39,0-9.21,0-18.41,0-27.62Z"/>
      <path class="cls-1" d="m4.2,37.68c0-9.08.03-18.15-.02-27.23-.02-2.68,1.3-4.39,3.49-5.61.78-.44,1.64-.62,2.55-.62,18.48,0,36.97,0,55.45,0,1.49,0,2.75.51,3.89,1.4.7.55,1.29,1.2,1.71,1.99.38.71.55,1.46.58,2.26,0,.26,0,.52,0,.78,0,18.05,0,36.11,0,54.16,0,3.04-1.15,5.54-3.35,7.56-.64.59-1.44,1.01-2.2,1.46-2.34,1.41-4.69,2.79-7.04,4.18-2.53,1.5-5.06,3.01-7.59,4.51-2.5,1.49-5.01,2.97-7.51,4.46-1.84,1.1-3.82,1.79-5.97,1.92-.9.05-1.79-.15-2.66-.36-1.69-.41-3.19-1.25-4.66-2.13-3.51-2.1-7.03-4.18-10.54-6.26-3.75-2.23-7.49-4.49-11.27-6.67-2.51-1.45-3.96-3.64-4.68-6.37-.15-.58-.18-1.2-.18-1.8-.02-4.06,0-8.11-.01-12.17,0-5.15,0-10.3,0-15.45Zm1.32-12.13c0,.22,0,.43,0,.64,0,12.98,0,25.97,0,38.95,0,.29,0,.59.05.88.45,2.7,1.71,4.85,4.14,6.27,3.64,2.12,7.26,4.3,10.89,6.45,4.02,2.39,8.04,4.78,12.06,7.16.98.58,2.01,1.04,3.1,1.32.84.22,1.69.4,2.57.33,1.74-.14,3.37-.67,4.87-1.55,3.68-2.17,7.34-4.35,11.01-6.53,4.11-2.44,8.21-4.88,12.32-7.3.91-.53,1.65-1.22,2.26-2.06,1-1.38,1.66-2.89,1.71-4.62.01-.56,0-1.11,0-1.67,0-12.18,0-24.36,0-36.54,0-.43,0-.85,0-1.28,0-.16-.03-.31-.05-.45-.46-.12-64.4-.13-64.92,0Zm64.95-1.33c0-.2.02-.37.02-.55,0-2.11,0-4.22,0-6.33,0-2.42,0-4.84,0-7.26,0-.7-.1-1.39-.49-1.97-1.06-1.59-2.48-2.56-4.47-2.56-18.21,0-36.41,0-54.62,0-.28,0-.56.01-.83.02-.72.01-1.38.21-2.01.57-.52.29-.98.66-1.38,1.09-.75.79-1.18,1.7-1.17,2.82.01,4.56,0,9.12,0,13.69,0,.17.03.35.04.5.55.12,64.45.1,64.91-.02Z"/>
      <path class="cls-1" d="m30.33,36.43c.55-.2,1.03-.38,1.57-.58-.05-.32-.1-.61-.17-.98.56-.15,1.1-.29,1.69-.45.12.33.21.6.33.93.5-.08.99-.16,1.52-.25.02-.23.05-.44.05-.64,0-1.49,0-2.98,0-4.46,0-.19.02-.39.03-.56.41-.15,4.69-.19,5.47-.04.01,1.87,0,3.76,0,5.71.53.11,1.03.21,1.56.31.1-.32.19-.59.29-.93.57.14,1.11.27,1.69.42-.06.36-.11.66-.15.95.43.28,1.14.54,1.56.55.94-1.64,1.88-3.29,2.86-5,1.6.91,3.16,1.79,4.78,2.7-1,1.76-1.96,3.46-2.95,5.21.4.35.77.68,1.18,1.04.24-.21.45-.39.71-.62.43.4.84.78,1.28,1.19-.23.28-.44.52-.66.79.37.46.73.9,1.11,1.38,1.77-1.02,3.51-2.02,5.3-3.06.92,1.59,1.82,3.14,2.76,4.75-1.82,1.06-3.59,2.09-5.4,3.13.18.51.33.97.5,1.46.32-.06.6-.1.95-.16.16.55.32,1.09.48,1.67-.33.13-.62.23-.96.36.09.55.17,1.08.27,1.67,2.12.03,4.18,0,6.27.06v5.46c-1.08.03-2.12,0-3.16,0-1.04,0-2.09,0-3.19,0-.1.5-.19.97-.28,1.46.33.11.6.21.93.32-.15.58-.3,1.12-.45,1.69-.35-.06-.63-.12-.98-.18-.16.43-.31.83-.48,1.3,1.8,1.1,3.65,2.07,5.42,3.14-.06.41-2.3,4.38-2.7,4.77-1.78-1.02-3.58-2.04-5.42-3.09-.36.43-.71.83-1.08,1.27.22.25.42.48.65.74-.36.45-.8.81-1.24,1.25-.25-.21-.48-.4-.75-.63-.39.34-.77.66-1.2,1.03,1.04,1.82,2.06,3.62,3.1,5.46-1.6.92-3.16,1.81-4.77,2.73-1.04-1.82-2.05-3.59-3.09-5.4-.46.18-.88.34-1.35.52.05.32.1.61.16.98-.56.15-1.1.29-1.69.45-.1-.31-.2-.58-.3-.9-.26.05-.51.09-.77.13-.26.05-.51.1-.81.15-.01.21-.04.4-.04.59,0,1.64,0,3.27,0,4.91,0,.19-.02.38-.04.63-1.81.05-3.58.02-5.41.03-.02-.24-.05-.43-.05-.62,0-1.6,0-3.21,0-4.81,0-.21,0-.42,0-.67-.49-.15-.95-.19-1.45-.25-.1.28-.19.55-.3.85-.59-.01-1.1-.23-1.68-.37.04-.33.08-.63.12-.98-.48-.18-.95-.35-1.48-.54-1.01,1.77-2,3.51-2.99,5.24-.4-.07-4.25-2.23-4.79-2.67.95-1.75,1.98-3.46,2.97-5.28-.4-.4-.85-.73-1.31-1.14-.25.21-.48.41-.75.64-.4-.42-.79-.83-1.2-1.28.19-.21.37-.43.61-.7-.32-.39-.63-.77-.98-1.2-1.78,1.02-3.53,2.03-5.26,3.04-.31-.26-2.49-3.95-2.79-4.7.84-.55,1.75-1.03,2.63-1.55.87-.51,1.74-1.02,2.65-1.55-.21-.57-.4-1.1-.6-1.67-.32.06-.61.1-.94.16-.24-.53-.31-1.09-.44-1.69.3-.11.56-.2.88-.31,0-.49-.14-.95-.25-1.5-2.03-.06-4.05,0-6.05-.1-.15-.38-.14-4.79.01-5.44.19-.01.4-.04.6-.04,1.6.01,3.21.03,4.81.05.19,0,.38-.02.63-.03.08-.49.16-.95.24-1.42-.33-.13-.6-.23-.94-.36.15-.56.29-1.1.44-1.67.34.06.62.11.96.17.17-.48.33-.93.51-1.42-.14-.1-.25-.19-.37-.26-1.39-.8-2.78-1.59-4.17-2.39-.21-.12-.41-.26-.67-.43.86-1.61,1.79-3.13,2.7-4.74,1.74.99,3.43,1.95,5.16,2.94.38-.46.74-.89,1.11-1.35-.24-.26-.44-.48-.65-.71.42-.42.82-.82,1.25-1.25.22.19.44.37.7.59.22-.18.43-.35.63-.53.21-.18.42-.36.66-.58-.39-.89-.93-1.69-1.39-2.53-.46-.84-.95-1.67-1.47-2.56,1.57-.95,3.13-1.82,4.75-2.73,1.03,1.64,1.89,3.34,2.91,5Zm-10.12,13.36c.32.12.59.22.91.34-.16.58-.31,1.12-.46,1.67-.33-.05-.59-.1-.9-.15-.07.37-.22.66-.12,1.03.93.08,1.86-.03,2.85.08,0,1.83,0,3.61-.05,5.45-.53,0-.98,0-1.44,0-.45,0-.9-.05-1.41.06.07.38.13.7.19,1.05.35-.05.63-.09.96-.14.13.59.35,1.12.38,1.71-.29.1-.55.18-.86.29.16.42.3.79.46,1.23.86-.49,1.65-.93,2.42-1.37.43.49,2.63,4.34,2.72,4.76-.77.45-1.55.91-2.35,1.38.23.36.42.66.76.84.22-.19.43-.36.66-.56.46.41.87.82,1.26,1.26-.23.26-.41.46-.6.67.29.35.56.63.99.8.48-.82.94-1.61,1.4-2.4,1.24.56,4.44,2.44,4.72,2.78-.43.78-.87,1.57-1.32,2.38.35.23.67.36,1.06.35.09-.26.18-.5.27-.77.6.05,1.13.23,1.7.38-.05.33-.09.62-.14.96.35.05.66.1,1.01.15.14-.98-.04-1.91.1-2.81.66-.12,5.02-.09,5.45.05,0,.43,0,.88,0,1.33,0,.45-.05.9.05,1.4.4-.08.74-.14,1.14-.21-.06-.35-.1-.64-.16-.97.59-.15,1.14-.29,1.7-.44.12.32.21.57.3.81.53-.06.59-.09.9-.39-.43-.77-.86-1.54-1.32-2.37,1.61-.92,3.16-1.81,4.76-2.72.47.82.91,1.58,1.39,2.4.33-.29.6-.53.89-.79-.22-.27-.4-.5-.62-.76.43-.42.83-.81,1.25-1.21.25.21.46.39.71.61.26-.31.49-.59.77-.93-.81-.47-1.54-.91-2.34-1.37.92-1.6,1.81-3.15,2.72-4.74.8.45,1.53.86,2.28,1.27.22-.32.35-.6.31-.95-.26-.09-.5-.18-.78-.28.05-.6.26-1.12.45-1.68.3.05.57.1.9.15.07-.34.13-.64.21-1.03h-2.6c-.21-.58.05-1.14-.17-1.63-.62-.11-11.31-.08-11.73.04-.02.41-.04.85-.06,1.28-.76.33-1.49.64-2.22.96-.05.48-.1.91.03,1.4.12-.11.21-.18.27-.26.25-.3.49-.61.73-.92.75-.95.41-.82,1.74-.83.22,0,.48,0,.66.1.58.34,1.12.73,1.67,1.09v2.77c-.47.15-12.29.14-12.76-.01,0-.9-.02-1.83,0-2.72.31-.22.57-.39.82-.57,1.01-.67,1.01-.66,2.22-.66.3,0,.5.11.67.33.41.53.82,1.06,1.23,1.59.06.08.14.15.26.26v-1.55c-.75-.33-1.48-.64-2.21-.96-.02-.47-.05-.9-.07-1.33-.42-.04-.77-.07-1.16-.11.01-.92-.06-1.77.05-2.64.39-.03.73-.05,1.11-.08.02-.47.04-.9.06-1.35.77-.34,1.51-.66,2.21-.97v-1.47s-.07-.05-.11-.07c-.05.08-.09.17-.15.24-.27.35-.59.67-.8,1.05-.42.73-1.02,1-1.84.86-.22-.04-.48-.02-.66-.12-.56-.33-1.09-.71-1.6-1.05-.13-.81-.08-2.48.06-2.81.62-.1,12.22-.07,12.66.05.04.9.04,1.82,0,2.75-.56.37-1.09.73-1.62,1.08-.08.05-.18.1-.27.1-.52,0-1.04,0-1.54,0-.3-.37-.56-.7-.84-1.03-.26-.31-.45-.69-.85-.97v1.4c.76.33,1.5.65,2.28.99v1.27c.54.14,11.42.12,11.82,0,.03-.31.07-.62.1-.99h2.66c-.07-.44-.13-.81-.2-1.21-.34.05-.6.09-.89.14-.17-.58-.36-1.11-.45-1.68.32-.12.58-.21.89-.32-.14-.35-.14-.72-.43-1.05-.78.44-1.55.88-2.37,1.34-.93-1.6-1.85-3.12-2.73-4.73.84-.54,1.69-.95,2.5-1.52-.29-.35-.54-.65-.8-.97-.24.21-.43.38-.65.58-.46-.37-.88-.76-1.28-1.19.22-.28.4-.5.62-.77-.31-.27-.58-.51-.91-.8-.52.91-1,1.75-1.51,2.64-.84-.47-1.63-.89-2.4-1.34-.78-.46-1.61-.85-2.35-1.4.52-.93,1.01-1.81,1.54-2.74-.39-.14-.72-.26-1.08-.39-.12.31-.22.55-.34.85-.58-.15-1.12-.29-1.67-.43.05-.36.1-.64.15-.97-.39-.07-.74-.12-1.15-.19-.07,1.1.02,2.14-.06,3.15-.68.14-5.07.11-5.49-.06v-3.03c-.49-.07-.81,0-1.12.2.05.26.1.52.15.82-.59.18-1.12.37-1.69.45-.12-.3-.21-.56-.32-.83-.42.09-.82.14-1.15.49.51.9,1.01,1.79,1.54,2.74-1.59.94-3.15,1.82-4.76,2.71-.55-.93-1.06-1.81-1.61-2.74-.36.33-.66.59-.97.87.23.27.41.49.63.74-.44.43-.84.82-1.25,1.23-.25-.22-.46-.4-.68-.59-.33.3-.6.59-.8,1.02.87.51,1.72,1,2.63,1.53-.92,1.61-1.82,3.16-2.72,4.74-.92-.44-1.69-1.02-2.64-1.41-.12.37-.22.68-.34,1.03Z"/>
      <path class="cls-1" d="m50.46,12.1c-.1,1.2.04,2.29-.09,3.39h-1.18c-.14-.38-.17-4.76-.02-5.35.38,0,.78-.03,1.18.01.15.02.3.19.4.32.72.87,1.43,1.74,2.14,2.61.12.15.25.29.45.52.09-.47.05-.84.06-1.2,0-.36,0-.72,0-1.08,0-.37,0-.74,0-1.16h1.25c.14.45.14,4.85-.02,5.34-.38,0-.79.03-1.18-.02-.16-.02-.33-.2-.45-.34-.71-.85-1.41-1.71-2.12-2.57-.11-.13-.23-.26-.42-.49Z"/>
      <path class="cls-1" d="m16.69,12.22c0,.54,0,1.07,0,1.61,0,.53,0,1.07,0,1.64h-1.25c-.14-.5-.13-4.9.01-5.32h1.32c.45.55.92,1.12,1.4,1.7.46.56.92,1.12,1.43,1.67.17-1.12.02-2.22.14-3.35h1.17c.14.41.16,4.82,0,5.34-.38,0-.79.03-1.19-.01-.15-.02-.3-.18-.41-.31-.73-.88-1.46-1.77-2.18-2.65-.1-.12-.21-.24-.32-.35-.04.01-.08.03-.12.04Z"/>
      <path class="cls-1" d="m22.66,10.17c.11-.01.24-.04.36-.04.91,0,1.83-.02,2.74.02.43.02.88.11,1.28.26.83.31,1.31.95,1.45,1.82.12.71.07,1.4-.3,2.04-.43.74-1.12,1.12-1.94,1.17-1.17.07-2.35.04-3.52.05-.03,0-.06-.03-.08-.04-.13-.39-.13-4.79,0-5.28Zm1.38.88v3.55c.75.02,1.48.08,2.2-.13.37-.11.6-.38.71-.75.16-.56.18-1.13.02-1.69-.12-.44-.4-.74-.85-.86-.67-.18-1.35-.15-2.07-.11Z"/>
      <path class="cls-1" d="m29.84,10.16h1.33c.02.21.05.4.05.59,0,.88.02,1.77,0,2.65-.01.74.26,1.18,1.22,1.27.06,0,.13,0,.2,0,1.21-.02,1.38-.44,1.39-1.32,0-.85,0-1.7,0-2.55,0-.19,0-.39,0-.63h1.38c.03.11.08.22.07.33,0,1.08,0,2.16-.05,3.23-.05.99-.47,1.48-1.44,1.72-.87.22-1.76.23-2.62.02-1.19-.29-1.55-.92-1.57-1.79-.03-1.09-.03-2.19-.03-3.28,0-.06.03-.12.06-.25Z"/>
      <path class="cls-1" d="m43.87,10.15h1.55c.93,1.74,1.85,3.48,2.82,5.3-.56.11-1.03.08-1.53.03-.22-.39-.42-.78-.64-1.18h-2.84c-.2.38-.4.76-.62,1.17h-1.49c.9-1.83,1.83-3.56,2.75-5.33Zm1.63,3.19c-.12-.51-.65-1.54-.93-1.82-.29.6-.57,1.17-.88,1.82h1.81Z"/>
      <path class="cls-1" d="m60.85,11.82c-.65-.82-1.51-1.06-2.39-.69-.45.19-.75.51-.87.99-.13.52-.12,1.05.06,1.55.08.23.25.46.44.63.65.57,2.22.56,2.66-.5.02-.06.07-.11.13-.2.43.03.84.15,1.31.29-.04.15-.06.27-.12.38-.28.53-.72.9-1.28,1.09-1.18.41-2.34.37-3.47-.22-1.73-.9-1.76-3.61-.07-4.56,1.28-.72,2.62-.74,3.95-.12.46.21.78.57.97,1.12-.44.17-.89.2-1.33.24Z"/>
      <path class="cls-1" d="m36.07,11v-.78c.07-.04.11-.08.16-.08.86,0,1.73,0,2.59.04.25.01.52.09.75.2.53.24.86.65.86,1.26,0,.6-.34.97-.84,1.21-.25.12-.51.19-.86.32.95.59,1.52,1.43,2.26,2.29-.63.09-1.14.09-1.65,0-.12-.02-.23-.17-.33-.28-.35-.39-.7-.77-1.04-1.17-.41-.49-.89-.81-1.56-.76-.09,0-.19-.03-.32-.06v-.75c.2-.02.37-.05.55-.05.44-.01.88,0,1.32-.02.22-.01.45-.07.66-.15.23-.09.35-.3.33-.55-.02-.25-.15-.44-.39-.51-.2-.06-.41-.1-.62-.11-.42-.02-.85-.01-1.27-.02-.18,0-.35-.02-.58-.03Z"/>
      <path class="cls-1" d="m62.69,14.19h6.46v1.28c-.15.02-.31.05-.47.05-1.85,0-3.69,0-5.54,0-.14,0-.29-.02-.45-.04-.12-.44-.1-.85-.01-1.3Z"/>
      <path class="cls-1" d="m62.67,10.16h6.49v1.23c-.43.14-5.98.15-6.49,0v-1.23Z"/>
      <path class="cls-1" d="m14.13,10.21v1.16c-.4.15-5.84.18-6.4.05-.13-.36-.14-.68-.04-1.19.36-.13,5.82-.17,6.44-.02Z"/>
      <path class="cls-1" d="m7.65,15.43v-1.17c.37-.14,5.88-.17,6.46-.03v1.17c-.36.14-5.86.17-6.46.03Z"/>
      <path class="cls-1" d="m12.99,13.48c-.53.12-4.89.1-5.32-.02v-1.17c.39-.13,4.79-.15,5.32-.02v1.2Z"/>
      <path class="cls-1" d="m68,12.26v1.19c-.4.12-4.72.14-5.3.03-.12-.39-.08-.8-.03-1.2.39-.13,4.75-.15,5.33-.03Z"/>
      <path class="cls-1" d="m48.61,20.39c.54.5.86,1.07,1.23,1.68h-.57c-.26-.38-.5-.77-.76-1.14-.38-.52-.74-.63-1.46-.45-.02.51-.04,1.04-.06,1.59h-.33c-.15-.43-.16-3.05-.01-3.69.06-.02.14-.06.21-.06.59,0,1.18,0,1.76.03.52.03.84.32.93.79.09.47-.13.88-.61,1.11-.09.04-.18.07-.34.14Zm-1.54-1.65v1.24c.54.05,1.05.09,1.54-.04.32-.09.47-.31.46-.61,0-.31-.17-.51-.5-.57-.48-.09-.97-.08-1.5,0Z"/>
      <path class="cls-1" d="m65.86,22.02c-.4.17-.55-.02-.69-.23-.46-.69-.92-1.38-1.39-2.08-.1-.14-.21-.28-.36-.49-.15.54-.06.99-.08,1.43-.02.45,0,.91,0,1.38-.16.01-.25.02-.33.03-.13-.37-.16-3.09-.05-3.66.39-.11.4-.12.63.22.48.7.95,1.41,1.42,2.11.09.13.19.26.36.49.14-1,0-1.9.1-2.82.1-.02.2-.03.38-.06.02,1.26.02,2.47,0,3.68Z"/>
      <path class="cls-1" d="m60.22,18.26c1.22,0,1.92.71,1.98,1.84.08,1.3-.83,2.19-2.08,2.04-.72-.09-1.18-.52-1.42-1.18-.21-.59-.17-1.19.1-1.76.32-.66.88-.93,1.41-.94Zm-1.15,1.84c.01.26.01.41.03.55.08.6.58,1.06,1.19,1.12.55.05,1.1-.3,1.3-.85.19-.51.18-1.02-.04-1.53-.23-.52-.65-.76-1.26-.73-.51.02-.94.33-1.1.82-.07.23-.09.48-.11.61Z"/>
      <path class="cls-1" d="m29.2,20.41v1.26c.41,0,.78.02,1.14.02.36,0,.71,0,1.1,0,.01.15.02.24.03.37-.92.08-1.8.05-2.68.02-.15-.46-.15-3.24-.02-3.68.49-.14,1.96-.15,2.58-.02.09.21,0,.31-.21.32-.29.01-.59,0-.88,0-.34,0-.68.01-1.06.02v1.17h1.97c.03.16.05.24.07.37-.67.17-1.35-.03-2.05.13Z"/>
      <path class="cls-1" d="m42.24,20.17c0-1.58,1.33-2.2,2.46-1.8.75.26,1.16.97,1.14,1.93-.02.87-.47,1.58-1.21,1.77-1.41.37-2.44-.51-2.39-1.9Zm.44.07c.03.19.05.38.11.57.16.57.65.95,1.21.97.58.01,1.07-.34,1.26-.91.14-.43.14-.87,0-1.3-.21-.62-.66-.92-1.3-.9-.6.02-1.01.36-1.18.99-.05.19-.07.38-.1.59Z"/>
      <path class="cls-1" d="m24.95,21.68c.76,0,1.49.01,2.23.02v.37h-2.64c-.14-.35-.18-2.97-.07-3.67.05-.02.11-.06.17-.06.69-.01,1.37-.02,2.06-.02.19,0,.42-.02.38.34-.69.17-1.41,0-2.14.11v1.15c.67,0,1.32.02,2.01.03,0,.14.01.23.02.39h-1.96c-.17.46-.12.85-.06,1.35Z"/>
      <path class="cls-1" d="m12.44,19.31c-.1.01-.18.03-.27.04-.04-.06-.09-.1-.12-.16-.31-.5-.98-.69-1.48-.41-.19.1-.3.25-.31.47,0,.23.14.37.33.44.24.09.5.15.75.23.26.08.54.14.78.27.67.36.71,1.21.11,1.67-.57.44-1.68.4-2.2-.08-.22-.2-.37-.45-.33-.81.11-.02.21-.03.33-.05.19.49.52.79,1.02.81.26.01.54-.06.8-.15.21-.07.32-.27.31-.51,0-.24-.13-.41-.35-.48-.34-.12-.69-.2-1.03-.32-.21-.07-.44-.15-.62-.28-.54-.41-.52-1.09.04-1.48.44-.32,1.38-.34,1.82-.01.25.18.48.4.4.83Z"/>
      <path class="cls-1" d="m36.32,20.58v1.46c-.17.02-.29.03-.4.04-.12-.38-.15-3.09-.05-3.7.1-.02.21-.05.32-.05.52,0,1.04-.02,1.56.02.58.04.89.37.93.89.06.63-.19,1.05-.74,1.21-.25.07-.51.07-.77.09-.26.02-.51.02-.86.04Zm.04-.49c.5.05.95.09,1.39-.03.31-.08.49-.36.49-.65,0-.32-.22-.58-.55-.65-.43-.08-.86-.05-1.33,0v1.34Z"/>
      <path class="cls-1" d="m20.05,22.03c-.15.04-.21.07-.27.07-.06,0-.13-.02-.21-.03-.08-.17-.16-.35-.24-.53-.08-.18-.15-.36-.24-.56h-1.6c-.15.36-.29.72-.44,1.09-.13,0-.23.01-.38.02,0-.1-.02-.19,0-.25.19-.52.38-1.04.58-1.56.25-.64.5-1.27.75-1.92h.55c.49,1.21.99,2.41,1.5,3.66Zm-1.73-3.15s-.06,0-.1,0c-.19.54-.38,1.07-.59,1.67h1.3c-.22-.6-.41-1.13-.61-1.67Z"/>
      <path class="cls-1" d="m23.32,20.82c.14.05.24.09.34.13,0,.07.02.12,0,.16-.24.66-.75,1.03-1.44,1.05-.82.02-1.36-.3-1.64-.99-.27-.67-.29-1.34.02-1.99.31-.64.86-.91,1.55-.93.65-.01,1.14.25,1.42.85.02.04.02.09.04.18-.12.04-.23.08-.34.12-.06-.07-.11-.11-.15-.16-.34-.52-.69-.67-1.29-.55-.46.09-.83.46-.9.98-.05.34-.05.69,0,1.02.08.61.48.99,1.05,1.07.5.07.93-.2,1.2-.73.03-.06.07-.11.13-.21Z"/>
      <path class="cls-1" d="m50.92,20.98c-.14.37-.27.71-.42,1.07h-.49c.49-1.27.96-2.48,1.42-3.68.13-.02.21-.05.29-.04.08,0,.16.03.28.05.49,1.2.98,2.4,1.51,3.67-.2.02-.33.03-.48.05-.17-.38-.33-.74-.5-1.12h-1.6Zm.85-2.11s-.07,0-.11,0c-.12.57-.45,1.07-.54,1.68h1.26c-.22-.6-.42-1.14-.61-1.67Z"/>
      <path class="cls-1" d="m32.15,18.42c.29-.13.48-.11.64.12.25.38.53.74.83,1.17.17-.21.3-.36.43-.52.17-.22.34-.44.51-.66.13-.18.29-.25.57-.11-.4.57-.8,1.11-1.19,1.66.37.71.94,1.25,1.28,1.95-.29.15-.48.07-.63-.15-.24-.35-.49-.69-.74-1.04-.06-.09-.15-.16-.26-.29-.25.34-.48.65-.71.96-.11.14-.22.29-.32.43-.13.17-.29.19-.5.09.07-.41.41-.65.61-.97.2-.32.43-.61.66-.95-.39-.57-.77-1.12-1.17-1.7Z"/>
      <path class="cls-1" d="m13.42,18.38c.77,0,1.44-.04,2.1.01.42.03.7.43.75.91.05.43-.2.95-.58,1.09-.24.09-.5.12-.76.14-.32.02-.65,0-1.03,0-.03.54-.05,1.01-.08,1.52h-.42c.02-1.23,0-2.43.02-3.68Zm.48,1.72c.51.02.97.1,1.43-.05.3-.1.45-.33.44-.63,0-.33-.18-.58-.5-.64-.45-.08-.9-.07-1.38-.01v1.34Z"/>
      <path class="cls-1" d="m55.44,18.72v3.33c-.18,0-.29.02-.48.02,0-1.13-.02-2.21-.02-3.32-.44-.02-.82-.04-1.31-.07.11-.16.15-.28.22-.31.12-.05.26-.04.39-.04.74,0,1.47,0,2.21,0,.06,0,.12.02.19.03.07.26-.06.35-.27.35-.27,0-.55,0-.92,0Z"/>
      <path class="cls-1" d="m39.48,18.34c.12.02.22.03.37.06,0,1.08.01,2.14.02,3.27.64.02,1.22.03,1.82.05-.01.15-.02.24-.02.36h-2.15c-.15-.37-.18-3.17-.03-3.74Z"/>
      <path class="cls-1" d="m57.35,18.36h.43v3.7h-.43v-3.7Z"/>
    </g>
  </g>
</svg>